<svg xmlns="http://www.w3.org/2000/svg" viewBox="0 0 32 32"><rect width="32" height="32" rx="7" fill="#e6162d"/><path d="M25.5 17.5c0 5-5.1 9-11.4 9-5.3 0-9.6-2.8-9.6-6.3 0-2.3 1.9-4.4 4.8-5.5-.2-.6-.3-1.2-.1-1.8.5-1.9 3.2-2.7 6-1.8 1.3.4 2.4 1.1 3.1 1.9 4.3.5 7.2 2.1 7.2 4.5Z" fill="#fff"/><ellipse cx="14.2" cy="19.2" rx="5.8" ry="3.8" fill="#e6162d"/><ellipse cx="14.2" cy="19.2" rx="2.4" ry="1.7" fill="#fff"/><path d="M21 9.3c3.2.3 5.5 2.2 5.8 4.7" fill="none" stroke="#ffd32a" stroke-width="2" stroke-linecap="round"/><circle cx="22" cy="10" r="1.6" fill="#ffd32a"/></svg>
